<mxfile host="app.diagrams.net" modified="2020-03-15T16:10:54.999Z" agent="Mozilla/5.0 (Macintosh; Intel Mac OS X 10_13_6) AppleWebKit/605.1.15 (KHTML, like Gecko) Version/13.0.5 Safari/605.1.15" etag="USvOzANv2YpAJnEiJapJ" version="12.8.5" type="github">
  <diagram id="hhu0UNKDP63KK2aRm4P-" name="Page-1">
    <mxGraphModel dx="615" dy="474" grid="1" gridSize="10" guides="1" tooltips="1" connect="1" arrows="1" fold="1" page="1" pageScale="1" pageWidth="827" pageHeight="1169" math="0" shadow="0">
      <root>
        <mxCell id="0" />
        <mxCell id="1" parent="0" />
        <mxCell id="8ybES9SqFMaaJkrLdm1D-2" value="&lt;font style=&quot;font-size: 9px&quot;&gt;Test Data&lt;/font&gt;" style="shape=note;whiteSpace=wrap;html=1;backgroundOutline=1;darkOpacity=0.05;fillColor=#dae8fc;strokeColor=#6c8ebf;shadow=1;size=16;" parent="1" vertex="1">
          <mxGeometry x="280" y="70" width="70" height="40" as="geometry" />
        </mxCell>
        <mxCell id="8ybES9SqFMaaJkrLdm1D-3" value="&lt;font style=&quot;font-size: 9px&quot;&gt;Train Data&lt;/font&gt;" style="shape=note;whiteSpace=wrap;html=1;backgroundOutline=1;darkOpacity=0.05;fillColor=#fff2cc;strokeColor=#d6b656;shadow=1;size=15;" parent="1" vertex="1">
          <mxGeometry x="280" y="190" width="70" height="40" as="geometry" />
        </mxCell>
        <mxCell id="8ybES9SqFMaaJkrLdm1D-18" value="&lt;font style=&quot;font-size: 10px&quot;&gt;Data with Machine State Label&lt;/font&gt;" style="shape=cylinder;whiteSpace=wrap;html=1;boundedLbl=1;backgroundOutline=1;shadow=1;fillColor=#bac8d3;strokeColor=#23445d;" parent="1" vertex="1">
          <mxGeometry x="160" y="100" width="60" height="80" as="geometry" />
        </mxCell>
        <mxCell id="8ybES9SqFMaaJkrLdm1D-19" value="" style="shape=curlyBracket;whiteSpace=wrap;html=1;rounded=1;shadow=1;" parent="1" vertex="1">
          <mxGeometry x="240" y="90" width="20" height="120" as="geometry" />
        </mxCell>
        <mxCell id="uanoQKULLMIdTWRapYiI-5" value="" style="edgeStyle=orthogonalEdgeStyle;rounded=0;orthogonalLoop=1;jettySize=auto;html=1;endArrow=none;endFill=0;" edge="1" parent="1" target="8ybES9SqFMaaJkrLdm1D-3">
          <mxGeometry relative="1" as="geometry">
            <mxPoint x="380" y="210" as="sourcePoint" />
          </mxGeometry>
        </mxCell>
        <mxCell id="uanoQKULLMIdTWRapYiI-8" value="" style="edgeStyle=orthogonalEdgeStyle;rounded=0;orthogonalLoop=1;jettySize=auto;html=1;endArrow=none;endFill=0;" edge="1" parent="1" source="uanoQKULLMIdTWRapYiI-6" target="8ybES9SqFMaaJkrLdm1D-2">
          <mxGeometry relative="1" as="geometry" />
        </mxCell>
        <mxCell id="uanoQKULLMIdTWRapYiI-6" value="&lt;font style=&quot;font-size: 10px&quot;&gt;&lt;span style=&quot;white-space: normal&quot;&gt;Powerdata with label&amp;nbsp;&lt;/span&gt;&lt;br style=&quot;white-space: normal&quot;&gt;&lt;span style=&quot;white-space: normal&quot;&gt;20190813&lt;/span&gt;&lt;/font&gt;" style="rounded=1;whiteSpace=wrap;html=1;shadow=1;fillColor=#dae8fc;strokeColor=#6c8ebf;" vertex="1" parent="1">
          <mxGeometry x="380" y="60" width="130" height="60" as="geometry" />
        </mxCell>
        <mxCell id="uanoQKULLMIdTWRapYiI-7" value="&lt;span style=&quot;font-size: 10px ; white-space: normal&quot;&gt;Powerdata with label 20190704&lt;/span&gt;&lt;br style=&quot;font-size: 10px ; white-space: normal&quot;&gt;&lt;span style=&quot;font-size: 10px ; white-space: normal&quot;&gt;20190722&lt;/span&gt;&lt;br style=&quot;font-size: 10px ; white-space: normal&quot;&gt;&lt;span style=&quot;font-size: 10px ; white-space: normal&quot;&gt;20190812&lt;/span&gt;&lt;br style=&quot;font-size: 10px ; white-space: normal&quot;&gt;&lt;span style=&quot;font-size: 10px ; white-space: normal&quot;&gt;20190827&lt;/span&gt;&lt;br style=&quot;font-size: 10px ; white-space: normal&quot;&gt;&lt;span style=&quot;font-size: 10px ; white-space: normal&quot;&gt;20190903&lt;/span&gt;&lt;br style=&quot;font-size: 10px ; white-space: normal&quot;&gt;&lt;span style=&quot;font-size: 10px ; white-space: normal&quot;&gt;20190918&lt;/span&gt;" style="rounded=1;whiteSpace=wrap;html=1;shadow=1;fillColor=#fff2cc;strokeColor=#d6b656;" vertex="1" parent="1">
          <mxGeometry x="380" y="155" width="130" height="110" as="geometry" />
        </mxCell>
        <mxCell id="uanoQKULLMIdTWRapYiI-9" value="" style="shape=curlyBracket;whiteSpace=wrap;html=1;rounded=1;shadow=1;" vertex="1" parent="1">
          <mxGeometry x="520" y="50" width="20" height="70" as="geometry" />
        </mxCell>
        <mxCell id="uanoQKULLMIdTWRapYiI-11" value="" style="shape=curlyBracket;whiteSpace=wrap;html=1;rounded=1;shadow=1;" vertex="1" parent="1">
          <mxGeometry x="520" y="175" width="20" height="70" as="geometry" />
        </mxCell>
        <mxCell id="uanoQKULLMIdTWRapYiI-28" style="edgeStyle=orthogonalEdgeStyle;rounded=0;orthogonalLoop=1;jettySize=auto;html=1;exitX=1;exitY=0.5;exitDx=0;exitDy=0;endArrow=classic;endFill=1;" edge="1" parent="1" source="uanoQKULLMIdTWRapYiI-12" target="uanoQKULLMIdTWRapYiI-18">
          <mxGeometry relative="1" as="geometry" />
        </mxCell>
        <mxCell id="uanoQKULLMIdTWRapYiI-12" value="&lt;font style=&quot;font-size: 10px&quot;&gt;x_test : powerdata&lt;/font&gt;" style="rounded=1;whiteSpace=wrap;html=1;shadow=1;fillColor=#dae8fc;strokeColor=#6c8ebf;" vertex="1" parent="1">
          <mxGeometry x="550" y="100" width="90" height="30" as="geometry" />
        </mxCell>
        <mxCell id="uanoQKULLMIdTWRapYiI-31" style="edgeStyle=orthogonalEdgeStyle;rounded=0;orthogonalLoop=1;jettySize=auto;html=1;exitX=1;exitY=0.5;exitDx=0;exitDy=0;entryX=0;entryY=0.5;entryDx=0;entryDy=0;endArrow=classic;endFill=1;" edge="1" parent="1" source="uanoQKULLMIdTWRapYiI-14" target="uanoQKULLMIdTWRapYiI-29">
          <mxGeometry relative="1" as="geometry" />
        </mxCell>
        <mxCell id="uanoQKULLMIdTWRapYiI-14" value="&lt;font style=&quot;font-size: 10px&quot;&gt;y_test: label&lt;/font&gt;" style="rounded=1;whiteSpace=wrap;html=1;shadow=1;fillColor=#dae8fc;strokeColor=#6c8ebf;" vertex="1" parent="1">
          <mxGeometry x="550" y="30" width="90" height="30" as="geometry" />
        </mxCell>
        <mxCell id="uanoQKULLMIdTWRapYiI-21" style="edgeStyle=orthogonalEdgeStyle;rounded=0;orthogonalLoop=1;jettySize=auto;html=1;exitX=1;exitY=0.5;exitDx=0;exitDy=0;entryX=1;entryY=0.5;entryDx=0;entryDy=0;endArrow=none;endFill=0;" edge="1" parent="1" source="uanoQKULLMIdTWRapYiI-15" target="uanoQKULLMIdTWRapYiI-16">
          <mxGeometry relative="1" as="geometry">
            <Array as="points">
              <mxPoint x="650" y="175" />
              <mxPoint x="650" y="245" />
            </Array>
          </mxGeometry>
        </mxCell>
        <mxCell id="uanoQKULLMIdTWRapYiI-15" value="&lt;font style=&quot;font-size: 10px&quot;&gt;x_train : powerdata&lt;/font&gt;" style="rounded=1;whiteSpace=wrap;html=1;shadow=1;fillColor=#fff2cc;strokeColor=#d6b656;" vertex="1" parent="1">
          <mxGeometry x="550" y="160" width="90" height="30" as="geometry" />
        </mxCell>
        <mxCell id="uanoQKULLMIdTWRapYiI-16" value="&lt;font style=&quot;font-size: 10px&quot;&gt;y_train: label&lt;/font&gt;" style="rounded=1;whiteSpace=wrap;html=1;shadow=1;fillColor=#fff2cc;strokeColor=#d6b656;" vertex="1" parent="1">
          <mxGeometry x="550" y="230" width="90" height="30" as="geometry" />
        </mxCell>
        <mxCell id="uanoQKULLMIdTWRapYiI-30" style="edgeStyle=orthogonalEdgeStyle;rounded=0;orthogonalLoop=1;jettySize=auto;html=1;exitX=0.5;exitY=0;exitDx=0;exitDy=0;entryX=0.5;entryY=1;entryDx=0;entryDy=0;endArrow=classic;endFill=1;" edge="1" parent="1" source="uanoQKULLMIdTWRapYiI-18" target="uanoQKULLMIdTWRapYiI-29">
          <mxGeometry relative="1" as="geometry" />
        </mxCell>
        <mxCell id="uanoQKULLMIdTWRapYiI-18" value="&lt;font style=&quot;font-size: 10px&quot;&gt;y_prediction : label&lt;/font&gt;" style="rounded=1;whiteSpace=wrap;html=1;shadow=1;fillColor=#dae8fc;strokeColor=#6c8ebf;" vertex="1" parent="1">
          <mxGeometry x="710" y="100" width="90" height="30" as="geometry" />
        </mxCell>
        <mxCell id="uanoQKULLMIdTWRapYiI-24" style="edgeStyle=orthogonalEdgeStyle;rounded=0;orthogonalLoop=1;jettySize=auto;html=1;exitX=0;exitY=0.5;exitDx=0;exitDy=0;endArrow=none;endFill=0;" edge="1" parent="1" source="uanoQKULLMIdTWRapYiI-20">
          <mxGeometry relative="1" as="geometry">
            <mxPoint x="650" y="210" as="targetPoint" />
          </mxGeometry>
        </mxCell>
        <mxCell id="uanoQKULLMIdTWRapYiI-27" style="edgeStyle=orthogonalEdgeStyle;rounded=0;orthogonalLoop=1;jettySize=auto;html=1;exitX=0.5;exitY=0;exitDx=0;exitDy=0;entryX=0.5;entryY=1;entryDx=0;entryDy=0;endArrow=classic;endFill=1;" edge="1" parent="1" source="uanoQKULLMIdTWRapYiI-20" target="uanoQKULLMIdTWRapYiI-12">
          <mxGeometry relative="1" as="geometry">
            <Array as="points">
              <mxPoint x="750" y="140" />
              <mxPoint x="595" y="140" />
            </Array>
          </mxGeometry>
        </mxCell>
        <mxCell id="uanoQKULLMIdTWRapYiI-20" value="&lt;font style=&quot;font-size: 11px&quot;&gt;Classifier&lt;/font&gt;" style="rhombus;whiteSpace=wrap;html=1;shadow=1;fillColor=#d0cee2;strokeColor=#56517e;" vertex="1" parent="1">
          <mxGeometry x="710" y="170" width="80" height="80" as="geometry" />
        </mxCell>
        <mxCell id="uanoQKULLMIdTWRapYiI-25" value="&lt;font style=&quot;font-size: 10px&quot;&gt;Classification &lt;br&gt;Algorithm&lt;/font&gt;" style="text;html=1;strokeColor=none;fillColor=none;align=center;verticalAlign=middle;whiteSpace=wrap;rounded=0;shadow=1;" vertex="1" parent="1">
          <mxGeometry x="650" y="170" width="80" height="40" as="geometry" />
        </mxCell>
        <mxCell id="uanoQKULLMIdTWRapYiI-26" value="&lt;font size=&quot;1&quot;&gt;KNN, ANN, DT&lt;/font&gt;" style="text;html=1;strokeColor=none;fillColor=none;align=center;verticalAlign=middle;whiteSpace=wrap;rounded=0;shadow=1;" vertex="1" parent="1">
          <mxGeometry x="650" y="210" width="80" height="40" as="geometry" />
        </mxCell>
        <mxCell id="uanoQKULLMIdTWRapYiI-29" value="&lt;font style=&quot;font-size: 10px&quot;&gt;Accuracy&lt;/font&gt;" style="ellipse;whiteSpace=wrap;html=1;shadow=1;fillColor=#d0cee2;strokeColor=#56517e;" vertex="1" parent="1">
          <mxGeometry x="717.5" y="25" width="65" height="40" as="geometry" />
        </mxCell>
      </root>
    </mxGraphModel>
  </diagram>
</mxfile>
